<svg xmlns="http://www.w3.org/2000/svg" version="1.1" xmlns:xlink="http://www.w3.org/1999/xlink" viewBox="0 0 200 200"><rect width="200" height="200" fill="url('#gradient')"></rect><defs><linearGradient id="gradient" gradientTransform="rotate(45 0.5 0.5)"><stop offset="0%" stop-color="#dee90b"></stop><stop offset="100%" stop-color="#d9e241"></stop></linearGradient></defs><g><g fill="#ffffff" transform="matrix(4.018312622629169,0,0,4.018312622629169,5.688524052471493,119.99168950798779)" stroke="#0e5278" stroke-width="0.65"><path d="M6.69-4.82L4.50-4.82L4.50 0L1.07 0L1.07-14.22L6.75-14.22Q8.38-14.22 9.63-13.62Q10.89-13.02 11.58-11.91Q12.27-10.80 12.27-9.39L12.27-9.39Q12.27-7.31 10.78-6.07Q9.29-4.82 6.69-4.82L6.69-4.82ZM4.50-11.57L4.50-7.47L6.75-7.47Q7.74-7.47 8.27-7.97Q8.79-8.47 8.79-9.38L8.79-9.38Q8.79-10.37 8.25-10.97Q7.71-11.56 6.79-11.57L6.79-11.57L4.50-11.57ZM19.47-2.97L19.47-2.97Q19.47-3.39 19.03-3.64Q18.59-3.90 17.36-4.17Q16.13-4.44 15.33-4.89Q14.53-5.33 14.11-5.97Q13.69-6.60 13.69-7.42L13.69-7.42Q13.69-8.88 14.89-9.82Q16.09-10.76 18.04-10.76L18.04-10.76Q20.13-10.76 21.40-9.81Q22.67-8.87 22.67-7.32L22.67-7.32L19.37-7.32Q19.37-8.59 18.03-8.59L18.03-8.59Q17.51-8.59 17.16-8.31Q16.81-8.02 16.81-7.59L16.81-7.59Q16.81-7.15 17.24-6.88Q17.67-6.60 18.61-6.43Q19.55-6.25 20.26-6.01L20.26-6.01Q22.65-5.19 22.65-3.07L22.65-3.07Q22.65-1.62 21.36-0.71Q20.08 0.20 18.04 0.20L18.04 0.20Q16.68 0.20 15.62-0.29Q14.55-0.78 13.96-1.62Q13.36-2.46 13.36-3.39L13.36-3.39L16.44-3.39Q16.46-2.66 16.92-2.32Q17.39-1.98 18.13-1.98L18.13-1.98Q18.80-1.98 19.14-2.26Q19.47-2.53 19.47-2.97ZM26.74-10.57L28.41-4.61L30.17-10.57L33.69-10.57L29.38 1.77L29.20 2.22Q28.28 4.27 25.96 4.27L25.96 4.27Q25.31 4.27 24.60 4.07L24.60 4.07L24.60 1.72L25.03 1.72Q25.72 1.72 26.09 1.52Q26.46 1.32 26.63 0.80L26.63 0.80L26.89 0.10L23.22-10.57L26.74-10.57ZM39.38 0L34.70 0L34.70-14.22L39.28-14.22Q41.16-14.22 42.67-13.36Q44.17-12.51 45.01-10.95Q45.86-9.39 45.87-7.46L45.87-7.46L45.87-6.81Q45.87-4.85 45.04-3.31Q44.22-1.76 42.72-0.88Q41.22-0.01 39.38 0L39.38 0ZM39.28-11.57L38.13-11.57L38.13-2.64L39.32-2.64Q40.79-2.64 41.58-3.69Q42.37-4.74 42.37-6.81L42.37-6.81L42.37-7.42Q42.37-9.48 41.58-10.53Q40.79-11.57 39.28-11.57L39.28-11.57Z"></path></g></g></svg>